<?xml version="1.0" encoding="UTF-8" standalone="no"?>
<!-- Created with Inkscape (http://www.inkscape.org/) -->

<svg
   xmlns:dc="http://purl.org/dc/elements/1.1/"
   xmlns:cc="http://creativecommons.org/ns#"
   xmlns:rdf="http://www.w3.org/1999/02/22-rdf-syntax-ns#"
   xmlns:svg="http://www.w3.org/2000/svg"
   xmlns="http://www.w3.org/2000/svg"
   xmlns:sodipodi="http://sodipodi.sourceforge.net/DTD/sodipodi-0.dtd"
   xmlns:inkscape="http://www.inkscape.org/namespaces/inkscape"
   width="210mm"
   height="297mm"
   viewBox="0 0 210 297"
   id="svg2"
   version="1.1"
   inkscape:version="0.91+devel+osxmenu r12889"
   sodipodi:docname="assets.svg">
  <defs
     id="defs4" />
  <sodipodi:namedview
     id="base"
     pagecolor="#ffffff"
     bordercolor="#666666"
     borderopacity="1.0"
     inkscape:pageopacity="0.0"
     inkscape:pageshadow="2"
     inkscape:zoom="1.4"
     inkscape:cx="47.160402"
     inkscape:cy="919.84465"
     inkscape:document-units="mm"
     inkscape:current-layer="layer1"
     showgrid="true"
     inkscape:snap-intersection-paths="true"
     inkscape:object-nodes="true"
     inkscape:snap-smooth-nodes="true"
     inkscape:window-width="1440"
     inkscape:window-height="810"
     inkscape:window-x="262"
     inkscape:window-y="118"
     inkscape:window-maximized="0">
    <inkscape:grid
       type="xygrid"
       id="grid4514" />
  </sodipodi:namedview>
  <metadata
     id="metadata7">
    <rdf:RDF>
      <cc:Work
         rdf:about="">
        <dc:format>image/svg+xml</dc:format>
        <dc:type
           rdf:resource="http://purl.org/dc/dcmitype/StillImage" />
        <dc:title></dc:title>
      </cc:Work>
    </rdf:RDF>
  </metadata>
  <g
     inkscape:label="Layer 1"
     inkscape:groupmode="layer"
     id="layer1">
    <rect
       style="fill:#e74c3c;fill-opacity:1;stroke:none;stroke-width:0.3023622;stroke-linecap:round;stroke-miterlimit:4;stroke-dasharray:none;stroke-opacity:1"
       id="rect4516"
       width="29.104168"
       height="29.104168"
       x="13.229167"
       y="37.708332"
       inkscape:export-xdpi="1787.3464"
       inkscape:export-ydpi="1787.3464" />
    <path
       style="fill:#ffffff;fill-opacity:1;stroke:none;stroke-width:0.3023622;stroke-linecap:round;stroke-miterlimit:4;stroke-dasharray:none;stroke-opacity:1"
       id="path4526-4"
       sodipodi:type="arc"
       sodipodi:cx="25.13541"
       sodipodi:cy="49.614586"
       sodipodi:rx="1.3229167"
       sodipodi:ry="1.3229167"
       sodipodi:start="0"
       sodipodi:end="6.2552949"
       sodipodi:open="true"
       d="m 26.458327,49.614586 a 1.3229167,1.3229167 0 0 1 -1.313693,1.322884 1.3229167,1.3229167 0 0 1 -1.332012,-1.304436 1.3229167,1.3229167 0 0 1 1.295118,-1.341075 1.3229167,1.3229167 0 0 1 1.350073,1.285735"
       inkscape:export-xdpi="1787.3464"
       inkscape:export-ydpi="1787.3464" />
    <path
       style="fill:#ffffff;fill-opacity:1;stroke:none;stroke-width:0.3023622;stroke-linecap:round;stroke-miterlimit:4;stroke-dasharray:none;stroke-opacity:1"
       id="path4526-3"
       sodipodi:type="arc"
       sodipodi:cx="22.489576"
       sodipodi:cy="53.583336"
       sodipodi:rx="1.3229167"
       sodipodi:ry="1.3229167"
       sodipodi:start="0"
       sodipodi:end="6.2552949"
       sodipodi:open="true"
       d="m 23.812493,53.583336 a 1.3229167,1.3229167 0 0 1 -1.313693,1.322884 1.3229167,1.3229167 0 0 1 -1.332012,-1.304436 1.3229167,1.3229167 0 0 1 1.295118,-1.341075 1.3229167,1.3229167 0 0 1 1.350073,1.285735"
       inkscape:export-xdpi="1787.3464"
       inkscape:export-ydpi="1787.3464" />
    <path
       style="fill:#ffffff;fill-opacity:1;stroke:none;stroke-width:0.3023622;stroke-linecap:round;stroke-miterlimit:4;stroke-dasharray:none;stroke-opacity:1"
       id="path4526-9"
       sodipodi:type="arc"
       sodipodi:cx="17.197908"
       sodipodi:cy="44.322918"
       sodipodi:rx="1.3229167"
       sodipodi:ry="1.3229167"
       sodipodi:start="0"
       sodipodi:end="6.2552949"
       sodipodi:open="true"
       d="m 18.520825,44.322918 a 1.3229167,1.3229167 0 0 1 -1.313693,1.322885 1.3229167,1.3229167 0 0 1 -1.332012,-1.304437 1.3229167,1.3229167 0 0 1 1.295118,-1.341075 1.3229167,1.3229167 0 0 1 1.350073,1.285735"
       inkscape:export-xdpi="1787.3464"
       inkscape:export-ydpi="1787.3464" />
    <path
       style="fill:none;fill-rule:evenodd;stroke:#ffffff;stroke-width:0.26458335px;stroke-linecap:butt;stroke-linejoin:miter;stroke-opacity:1"
       d="m 17.197917,44.322919 7.9375,5.291667"
       id="path4573"
       inkscape:connector-curvature="0"
       inkscape:export-xdpi="1787.3464"
       inkscape:export-ydpi="1787.3464" />
    <path
       style="fill:none;fill-rule:evenodd;stroke:#ffffff;stroke-width:0.26458335px;stroke-linecap:butt;stroke-linejoin:miter;stroke-opacity:1"
       d="m 25.135417,49.614586 -2.645833,3.96875 -5.291675,-9.260418"
       id="path4575"
       inkscape:connector-curvature="0"
       inkscape:export-xdpi="1787.3464"
       inkscape:export-ydpi="1787.3464" />
    <path
       style="fill:#ffffff;fill-opacity:1;stroke:none;stroke-width:0.3023622;stroke-linecap:round;stroke-miterlimit:4;stroke-dasharray:none;stroke-opacity:1"
       id="path4526-9-8"
       sodipodi:type="arc"
       sodipodi:cx="38.364574"
       sodipodi:cy="48.291668"
       sodipodi:rx="1.3229167"
       sodipodi:ry="1.3229167"
       sodipodi:start="0"
       sodipodi:end="6.2552949"
       sodipodi:open="true"
       d="m 39.687491,48.291668 a 1.3229167,1.3229167 0 0 1 -1.313692,1.322885 1.3229167,1.3229167 0 0 1 -1.332013,-1.304437 1.3229167,1.3229167 0 0 1 1.295118,-1.341075 1.3229167,1.3229167 0 0 1 1.350073,1.285735"
       inkscape:export-xdpi="1787.3464"
       inkscape:export-ydpi="1787.3464" />
    <path
       style="fill:#ffffff;fill-opacity:1;stroke:none;stroke-width:0.3023622;stroke-linecap:round;stroke-miterlimit:4;stroke-dasharray:none;stroke-opacity:1"
       id="path4526-9-3"
       sodipodi:type="arc"
       sodipodi:cx="31.749992"
       sodipodi:cy="54.906254"
       sodipodi:rx="1.3229167"
       sodipodi:ry="1.3229167"
       sodipodi:start="0"
       sodipodi:end="6.2552949"
       sodipodi:open="true"
       d="m 33.072909,54.906254 a 1.3229167,1.3229167 0 0 1 -1.313693,1.322884 1.3229167,1.3229167 0 0 1 -1.332012,-1.304436 1.3229167,1.3229167 0 0 1 1.295118,-1.341076 1.3229167,1.3229167 0 0 1 1.350073,1.285736"
       inkscape:export-xdpi="1787.3464"
       inkscape:export-ydpi="1787.3464" />
    <path
       style="fill:#ffffff;fill-opacity:1;stroke:none;stroke-width:0.3023622;stroke-linecap:round;stroke-miterlimit:4;stroke-dasharray:none;stroke-opacity:1"
       id="path4526-9-6"
       sodipodi:type="arc"
       sodipodi:cx="38.364574"
       sodipodi:cy="60.197918"
       sodipodi:rx="1.3229167"
       sodipodi:ry="1.3229167"
       sodipodi:start="0"
       sodipodi:end="6.2552949"
       sodipodi:open="true"
       d="m 39.687491,60.197918 a 1.3229167,1.3229167 0 0 1 -1.313692,1.322885 1.3229167,1.3229167 0 0 1 -1.332013,-1.304437 1.3229167,1.3229167 0 0 1 1.295118,-1.341075 1.3229167,1.3229167 0 0 1 1.350073,1.285735"
       inkscape:export-xdpi="1787.3464"
       inkscape:export-ydpi="1787.3464" />
    <path
       style="fill:#ffffff;fill-opacity:1;stroke:none;stroke-width:0.3023622;stroke-linecap:round;stroke-miterlimit:4;stroke-dasharray:none;stroke-opacity:1"
       id="path4526-9-80"
       sodipodi:type="arc"
       sodipodi:cx="29.104158"
       sodipodi:cy="61.520836"
       sodipodi:rx="1.3229167"
       sodipodi:ry="1.3229167"
       sodipodi:start="0"
       sodipodi:end="6.2552949"
       sodipodi:open="true"
       d="m 30.427075,61.520836 a 1.3229167,1.3229167 0 0 1 -1.313693,1.322884 1.3229167,1.3229167 0 0 1 -1.332012,-1.304436 1.3229167,1.3229167 0 0 1 1.295118,-1.341075 1.3229167,1.3229167 0 0 1 1.350073,1.285735"
       inkscape:export-xdpi="1787.3464"
       inkscape:export-ydpi="1787.3464" />
    <path
       style="fill:none;fill-rule:evenodd;stroke:#ffffff;stroke-width:0.26458335px;stroke-linecap:butt;stroke-linejoin:miter;stroke-opacity:1"
       d="m 31.750001,54.906253 -2.645834,6.614583"
       id="path4641"
       inkscape:connector-curvature="0"
       inkscape:export-xdpi="1787.3464"
       inkscape:export-ydpi="1787.3464" />
    <path
       style="fill:none;fill-rule:evenodd;stroke:#ffffff;stroke-width:0.26458335px;stroke-linecap:butt;stroke-linejoin:miter;stroke-opacity:1"
       d="m 38.364584,48.291669 -6.614583,6.614584"
       id="path4643"
       inkscape:connector-curvature="0"
       inkscape:export-xdpi="1787.3464"
       inkscape:export-ydpi="1787.3464" />
    <path
       style="fill:none;fill-rule:evenodd;stroke:#ffffff;stroke-width:0.26458335px;stroke-linecap:butt;stroke-linejoin:miter;stroke-opacity:1"
       d="m 29.104167,61.520836 9.260417,-1.322917"
       id="path4645"
       inkscape:connector-curvature="0"
       inkscape:export-xdpi="1787.3464"
       inkscape:export-ydpi="1787.3464" />
    <path
       style="fill:#ffffff;fill-rule:evenodd;stroke:#ffffff;stroke-width:0.26458335px;stroke-linecap:butt;stroke-linejoin:miter;stroke-opacity:1"
       d="m 31.750001,54.906253 6.614583,5.291666"
       id="path4647"
       inkscape:connector-curvature="0"
       inkscape:export-xdpi="1787.3464"
       inkscape:export-ydpi="1787.3464" />
  </g>
</svg>
